<svg width="57" height="57" viewBox="0 0 57 57" fill="none" xmlns="http://www.w3.org/2000/svg">
<circle cx="28.322" cy="28.322" r="28.0779" fill="white" stroke="#1D4ED8" stroke-width="0.488311"/>
<path d="M20.7793 37.1963L19.1045 38.2359L25.2896 32.6605C25.5907 32.3891 25.9271 32.1597 26.2896 31.9784L26.5062 31.8701C26.9884 31.629 27.52 31.5035 28.0591 31.5035C28.802 31.5035 29.5254 31.7419 30.1229 32.1835L31.3536 33.0931L35.608 37.1138L38.5877 39.9298C39.4322 40.7279 40.1445 41.6551 40.6979 42.6767C40.9474 43.1374 41.0781 43.653 41.0781 44.1769V44.305C41.0781 45.0416 40.8555 45.761 40.4395 46.3689L40.3808 46.4548C40.0399 46.9529 39.5878 47.3649 39.0601 47.6581L38.8737 47.7616C38.4184 48.0146 37.906 48.1473 37.3851 48.1473C36.7463 48.1473 36.1234 47.9477 35.6035 47.5764L35.0938 47.2123L33.2237 45.4357L29.203 41.1345L26.7341 38.9325C26.0768 38.3463 25.3404 37.8555 24.5465 37.4744L23.7778 37.1054C23.5304 36.9867 23.271 36.8951 23.004 36.8323C22.2435 36.6533 21.4431 36.7843 20.7793 37.1963Z" fill="#1D4ED8"/>
<circle cx="22.5641" cy="42.8177" r="4.2077" fill="#1D4ED8"/>
<path d="M35.6211 19.4477L37.2959 18.4081L31.1108 23.9834C30.8097 24.2548 30.4733 24.4843 30.1107 24.6656L29.8941 24.7739C29.412 25.0149 28.8804 25.1404 28.3413 25.1404C27.5984 25.1404 26.875 24.9021 26.2775 24.4605L25.0468 23.5509L20.7924 19.5302L17.8126 16.7142C16.9682 15.9161 16.2559 14.9889 15.7025 13.9673C15.453 13.5066 15.3223 12.991 15.3223 12.4671V12.339C15.3223 11.6024 15.5449 10.883 15.9609 10.275L16.0196 10.1892C16.3604 9.69104 16.8126 9.27907 17.3403 8.98593L17.5266 8.88238C17.982 8.6294 18.4943 8.49664 19.0153 8.49664C19.6541 8.49664 20.277 8.69626 20.7969 9.06759L21.3066 9.43168L23.1767 11.2083L27.1974 15.5095L29.6663 17.7115C30.3236 18.2977 31.06 18.7885 31.8539 19.1696L32.6226 19.5386C32.8699 19.6573 33.1294 19.7489 33.3964 19.8117C34.1569 19.9906 34.9573 19.8597 35.6211 19.4477Z" fill="#1D4ED8"/>
<circle cx="33.8358" cy="13.8264" r="4.2077" transform="rotate(180 33.8358 13.8264)" fill="#1D4ED8"/>
<path d="M37.4496 36.1273L38.4892 37.8021L32.9138 31.617C32.6424 31.3159 32.413 30.9795 32.2317 30.617L32.1234 30.4004C31.8823 29.9182 31.7568 29.3866 31.7568 28.8476C31.7568 28.1046 31.9952 27.3812 32.4368 26.7837L33.3464 25.553L37.3671 21.2986L40.1831 18.3189C40.9812 17.4744 41.9084 16.7621 42.93 16.2088C43.3907 15.9592 43.9063 15.8286 44.4301 15.8286H44.5582C45.2949 15.8286 46.0143 16.0511 46.6222 16.4671L46.7081 16.5258C47.2062 16.8667 47.6182 17.3188 47.9113 17.8465L48.0149 18.0329C48.2679 18.4882 48.4006 19.0006 48.4006 19.5215C48.4006 20.1604 48.201 20.7833 47.8297 21.3031L47.4656 21.8129L45.689 23.6829L41.3878 27.7036L39.1858 30.1726C38.5996 30.8298 38.1088 31.5662 37.7277 32.3601L37.3587 33.1289C37.24 33.3762 37.1484 33.6356 37.0856 33.9027C36.9066 34.6631 37.0376 35.4635 37.4496 36.1273Z" fill="#DFE5EF"/>
<circle cx="43.07" cy="34.3424" r="4.2077" transform="rotate(-90 43.07 34.3424)" fill="#DFE5EF"/>
<path d="M19.4479 21.2852L18.4083 19.6104L23.9836 25.7955C24.255 26.0966 24.4845 26.433 24.6658 26.7956L24.7741 27.0122C25.0151 27.4943 25.1406 28.0259 25.1406 28.565C25.1406 29.308 24.9023 30.0313 24.4607 30.6288L23.551 31.8595L19.5304 36.114L16.7144 39.0937C15.9163 39.9381 14.9891 40.6504 13.9674 41.2038C13.5068 41.4533 12.9912 41.584 12.4673 41.584H12.3392C11.6026 41.584 10.8832 41.3614 10.2752 40.9455L10.1894 40.8867C9.69122 40.5459 9.27925 40.0937 8.98612 39.5661L8.88256 39.3797C8.62958 38.9243 8.49682 38.412 8.49682 37.891C8.49682 37.2522 8.69644 36.6293 9.06777 36.1094L9.43187 35.5997L11.2085 33.7296L15.5097 29.7089L17.7117 27.24C18.2979 26.5827 18.7887 25.8463 19.1698 25.0524L19.5388 24.2837C19.6575 24.0364 19.7491 23.7769 19.8119 23.5099C19.9908 22.7494 19.8598 21.949 19.4479 21.2852Z" fill="#DFE5EF"/>
<circle cx="13.827" cy="23.0701" r="4.2077" transform="rotate(90 13.827 23.0701)" fill="#DFE5EF"/>
</svg>
