<svg width="142" height="34" viewBox="0 0 142 34" fill="none" xmlns="http://www.w3.org/2000/svg">
<circle cx="12.2588" cy="16.9544" r="12.1531" fill="white" stroke="#1D4ED8" stroke-width="0.211358"/>
<path d="M8.99397 20.7958L8.26904 21.2458L10.9462 18.8326C11.0765 18.7151 11.2221 18.6158 11.379 18.5373L11.4728 18.4905C11.6815 18.3861 11.9116 18.3318 12.1449 18.3318C12.4665 18.3318 12.7796 18.4349 13.0382 18.6261L13.5709 19.0198L15.4124 20.7601L16.7021 21.979C17.0676 22.3244 17.3759 22.7257 17.6154 23.1679C17.7234 23.3673 17.78 23.5905 17.78 23.8172V23.8727C17.78 24.1915 17.6837 24.5029 17.5036 24.7661L17.4782 24.8032C17.3307 25.0188 17.1349 25.1972 16.9066 25.324L16.8259 25.3689C16.6288 25.4784 16.407 25.5358 16.1816 25.5358C15.905 25.5358 15.6354 25.4494 15.4104 25.2887L15.1898 25.1311L14.3803 24.3621L12.64 22.5004L11.5714 21.5473C11.2869 21.2936 10.9682 21.0811 10.6245 20.9162L10.2918 20.7565C10.1848 20.7051 10.0725 20.6655 9.95687 20.6383C9.62772 20.5608 9.28127 20.6175 8.99397 20.7958Z" fill="#1D4ED8"/>
<circle cx="9.76656" cy="23.229" r="1.82124" fill="#1D4ED8"/>
<path d="M15.4177 13.1134L16.1426 12.6634L13.4654 15.0766C13.3351 15.1941 13.1895 15.2934 13.0326 15.3719L12.9388 15.4187C12.7301 15.5231 12.5 15.5774 12.2667 15.5774C11.9451 15.5774 11.632 15.4742 11.3734 15.2831L10.8407 14.8894L8.99925 13.1491L7.70953 11.9302C7.34401 11.5848 7.03572 11.1834 6.79619 10.7412C6.68819 10.5419 6.63163 10.3187 6.63163 10.0919V10.0365C6.63163 9.71765 6.72797 9.40625 6.90801 9.14312L6.93343 9.10596C7.08096 8.89034 7.27667 8.71202 7.50506 8.58514L7.58574 8.54032C7.78284 8.43082 8.00459 8.37336 8.23006 8.37336C8.50659 8.37336 8.7762 8.45976 9.00122 8.62049L9.22185 8.77808L10.0313 9.54705L11.7716 11.4088L12.8402 12.3619C13.1247 12.6156 13.4434 12.828 13.7871 12.993L14.1198 13.1527C14.2269 13.2041 14.3392 13.2437 14.4547 13.2709C14.7839 13.3484 15.1303 13.2917 15.4177 13.1134Z" fill="#1D4ED8"/>
<circle cx="14.6456" cy="10.6803" r="1.82124" transform="rotate(180 14.6456 10.6803)" fill="#1D4ED8"/>
<path d="M16.2092 20.333L16.6591 21.0579L14.2459 18.3808C14.1284 18.2505 14.0291 18.1049 13.9507 17.9479L13.9038 17.8542C13.7994 17.6455 13.7451 17.4154 13.7451 17.1821C13.7451 16.8605 13.8483 16.5474 14.0394 16.2888L14.4331 15.7561L16.1734 13.9146L17.3923 12.6249C17.7377 12.2594 18.1391 11.9511 18.5813 11.7115C18.7807 11.6035 19.0038 11.547 19.2306 11.547H19.286C19.6049 11.547 19.9163 11.6433 20.1794 11.8234L20.2165 11.8488C20.4322 11.9963 20.6105 12.192 20.7374 12.4204L20.7822 12.5011C20.8917 12.6982 20.9492 12.9199 20.9492 13.1454C20.9492 13.4219 20.8627 13.6915 20.702 13.9166L20.5444 14.1372L19.7755 14.9466L17.9137 16.6869L16.9606 17.7556C16.7069 18.04 16.4945 18.3588 16.3295 18.7024L16.1698 19.0352C16.1184 19.1422 16.0788 19.2545 16.0516 19.3701C15.9741 19.6992 16.0308 20.0457 16.2092 20.333Z" fill="#DFE5EF"/>
<circle cx="18.642" cy="19.5605" r="1.82124" transform="rotate(-90 18.642 19.5605)" fill="#DFE5EF"/>
<path d="M8.41731 13.9088L7.96736 13.1838L10.3806 15.861C10.498 15.9913 10.5973 16.1369 10.6758 16.2938L10.7227 16.3876C10.827 16.5963 10.8813 16.8264 10.8813 17.0597C10.8813 17.3813 10.7782 17.6944 10.587 17.953L10.1933 18.4857L8.45302 20.3272L7.23416 21.6169C6.88873 21.9824 6.4874 22.2907 6.04519 22.5302C5.84581 22.6382 5.62264 22.6948 5.39589 22.6948H5.34044C5.0216 22.6948 4.71021 22.5984 4.44707 22.4184L4.40992 22.393C4.19429 22.2455 4.01598 22.0497 3.8891 21.8214L3.84428 21.7407C3.73478 21.5436 3.67731 21.3218 3.67731 21.0964C3.67731 20.8198 3.76372 20.5502 3.92444 20.3252L4.08203 20.1046L4.851 19.2951L6.71272 17.5548L7.66583 16.4862C7.91955 16.2017 8.132 15.883 8.29695 15.5393L8.45667 15.2066C8.50805 15.0996 8.54768 14.9873 8.57488 14.8717C8.65233 14.5425 8.59564 14.1961 8.41731 13.9088Z" fill="#DFE5EF"/>
<circle cx="5.98393" cy="14.6814" r="1.82124" transform="rotate(90 5.98393 14.6814)" fill="#DFE5EF"/>
<g filter="url(#filter0_d_759_194)">
<path d="M37.1355 21.4543V11.7149H40.7336C41.428 11.7149 42.0187 11.8276 42.5057 12.0531C42.9926 12.2785 43.3624 12.5941 43.6149 13C43.8764 13.3967 44.0072 13.8702 44.0072 14.4203C44.0072 14.9704 43.8764 15.4528 43.6149 15.8677C43.3624 16.2735 42.9926 16.5936 42.5057 16.8281C42.0187 17.0535 41.428 17.1662 40.7336 17.1662H37.9471V16.1923H40.6931C41.4145 16.1923 41.9601 16.0345 42.3298 15.7189C42.7086 15.4032 42.898 14.9704 42.898 14.4203C42.898 13.8792 42.7131 13.4554 42.3434 13.1487C41.9736 12.8421 41.4235 12.6888 40.6931 12.6888H38.2447V21.4543H37.1355ZM42.8438 21.4543L37.663 16.6252H39.1781L44.5212 21.4543H42.8438ZM48.349 21.5896C47.6907 21.5896 47.109 21.4362 46.604 21.1296C46.099 20.814 45.7022 20.3857 45.4136 19.8446C45.1251 19.3035 44.9808 18.6813 44.9808 17.9779C44.9808 17.2745 45.1206 16.6567 45.4001 16.1247C45.6887 15.5836 46.09 15.1643 46.604 14.8667C47.118 14.5691 47.7087 14.4203 48.376 14.4203C49.0163 14.4203 49.5709 14.5601 50.0399 14.8396C50.5178 15.1192 50.883 15.5115 51.1355 16.0165C51.3971 16.5215 51.5278 17.1166 51.5278 17.802C51.5278 17.8922 51.5233 17.9779 51.5143 18.059C51.5143 18.1402 51.5053 18.2304 51.4872 18.3296H45.7924V17.4233H50.8244L50.4727 17.9238C50.4727 17.0941 50.2879 16.4583 49.9181 16.0165C49.5574 15.5656 49.0434 15.3401 48.376 15.3401C47.6907 15.3401 47.1361 15.5791 46.7122 16.057C46.2974 16.526 46.09 17.1617 46.09 17.9643C46.09 18.785 46.2974 19.4433 46.7122 19.9393C47.1361 20.4262 47.6997 20.6697 48.4031 20.6697C48.845 20.6697 49.2328 20.575 49.5664 20.3857C49.9001 20.1873 50.1436 19.9077 50.2969 19.547H51.3249C51.0995 20.1782 50.7207 20.6787 50.1887 21.0485C49.6656 21.4092 49.0524 21.5896 48.349 21.5896ZM55.4973 21.5896C54.6497 21.5896 53.9733 21.3957 53.4683 21.0079C52.9633 20.6111 52.6747 20.052 52.6026 19.3306H53.6442C53.7073 19.7724 53.9012 20.1106 54.2258 20.3451C54.5505 20.5795 54.9833 20.6968 55.5244 20.6968C56.0023 20.6968 56.3766 20.6066 56.6471 20.4262C56.9177 20.2459 57.0529 19.9889 57.0529 19.6552C57.0529 19.4207 56.9763 19.2178 56.823 19.0465C56.6697 18.8661 56.3631 18.7173 55.9032 18.6001L54.7939 18.316C54.1627 18.1537 53.6892 17.9057 53.3736 17.5721C53.058 17.2294 52.9002 16.8236 52.9002 16.3546C52.9002 15.7594 53.1211 15.2905 53.563 14.9478C54.0049 14.5961 54.6046 14.4203 55.3621 14.4203C56.1106 14.4203 56.7193 14.6006 57.1882 14.9614C57.6571 15.3221 57.9232 15.8226 57.9863 16.4628H56.9447C56.8816 16.0931 56.7103 15.809 56.4307 15.6106C56.1511 15.4123 55.7814 15.3131 55.3215 15.3131C54.8796 15.3131 54.5369 15.3987 54.2934 15.5701C54.05 15.7324 53.9282 15.9669 53.9282 16.2735C53.9282 16.5079 54.0139 16.7108 54.1852 16.8822C54.3656 17.0535 54.6632 17.1978 55.078 17.315L56.1602 17.6126C56.8004 17.784 57.2829 18.0455 57.6075 18.3972C57.9322 18.7489 58.0945 19.1727 58.0945 19.6687C58.0945 20.2729 57.8646 20.7464 57.4046 21.0891C56.9447 21.4227 56.309 21.5896 55.4973 21.5896ZM62.023 21.5896C61.1753 21.5896 60.499 21.3957 59.994 21.0079C59.489 20.6111 59.2004 20.052 59.1283 19.3306H60.1698C60.233 19.7724 60.4269 20.1106 60.7515 20.3451C61.0761 20.5795 61.509 20.6968 62.0501 20.6968C62.528 20.6968 62.9023 20.6066 63.1728 20.4262C63.4434 20.2459 63.5786 19.9889 63.5786 19.6552C63.5786 19.4207 63.502 19.2178 63.3487 19.0465C63.1954 18.8661 62.8888 18.7173 62.4288 18.6001L61.3196 18.316C60.6884 18.1537 60.2149 17.9057 59.8993 17.5721C59.5837 17.2294 59.4259 16.8236 59.4259 16.3546C59.4259 15.7594 59.6468 15.2905 60.0887 14.9478C60.5306 14.5961 61.1303 14.4203 61.8878 14.4203C62.6363 14.4203 63.245 14.6006 63.7139 14.9614C64.1828 15.3221 64.4489 15.8226 64.512 16.4628H63.4704C63.4073 16.0931 63.2359 15.809 62.9564 15.6106C62.6768 15.4123 62.3071 15.3131 61.8472 15.3131C61.4053 15.3131 61.0626 15.3987 60.8191 15.5701C60.5756 15.7324 60.4539 15.9669 60.4539 16.2735C60.4539 16.5079 60.5396 16.7108 60.7109 16.8822C60.8913 17.0535 61.1889 17.1978 61.6037 17.315L62.6859 17.6126C63.3261 17.784 63.8086 18.0455 64.1332 18.3972C64.4579 18.7489 64.6202 19.1727 64.6202 19.6687C64.6202 20.2729 64.3902 20.7464 63.9303 21.0891C63.4704 21.4227 62.8346 21.5896 62.023 21.5896ZM66.6452 24.2273L68.1873 20.6427L68.4308 20.2639L70.6898 14.5555H71.799L67.795 24.2273H66.6452ZM68.309 21.5219L65.2114 14.5555H66.4017L69.0665 20.7915L68.309 21.5219ZM73.1305 21.4543V14.5555H74.1451V16.1788H74.2127V21.4543H73.1305ZM78.0679 21.4543V16.9363C78.0679 16.4132 77.9371 16.021 77.6756 15.7594C77.4141 15.4979 77.0263 15.3672 76.5123 15.3672C76.0614 15.3672 75.6601 15.4664 75.3084 15.6648C74.9657 15.8632 74.6952 16.1382 74.4968 16.4899C74.3074 16.8416 74.2127 17.2519 74.2127 17.7209L74.0368 16.0841C74.2713 15.5701 74.6275 15.1643 75.1055 14.8667C75.5924 14.5691 76.1425 14.4203 76.7558 14.4203C77.4772 14.4203 78.0543 14.6277 78.4872 15.0425C78.9291 15.4483 79.15 15.9849 79.15 16.6522V21.4543H78.0679ZM84.0174 21.4543V11.7149H85.1266V21.4543H84.0174ZM84.5855 17.2745V16.3005H89.834V17.2745H84.5855ZM84.5855 12.6888V11.7149H90.2127V12.6888H84.5855ZM91.8093 21.4543V14.5555H92.8915V21.4543H91.8093ZM91.7282 12.9864V11.7149H92.9727V12.9864H91.7282ZM95.059 21.4543V14.5555H96.0735V16.1788H96.1411V21.4543H95.059ZM99.9963 21.4543V16.9363C99.9963 16.4132 99.8655 16.021 99.604 15.7594C99.3425 15.4979 98.9547 15.3672 98.4407 15.3672C97.9898 15.3672 97.5885 15.4664 97.2368 15.6648C96.8941 15.8632 96.6236 16.1382 96.4252 16.4899C96.2358 16.8416 96.1411 17.2519 96.1411 17.7209L95.9653 16.0841C96.1997 15.5701 96.5559 15.1643 97.0339 14.8667C97.5209 14.5691 98.071 14.4203 98.6842 14.4203C99.4056 14.4203 99.9828 14.6277 100.416 15.0425C100.858 15.4483 101.078 15.9849 101.078 16.6522V21.4543H99.9963ZM107.351 21.4543C107.315 21.301 107.288 21.1251 107.27 20.9267C107.261 20.7283 107.256 20.4758 107.256 20.1692H107.189V16.8687C107.189 16.3456 107.067 15.9624 106.823 15.7189C106.589 15.4664 106.206 15.3401 105.674 15.3401C105.151 15.3401 104.731 15.4483 104.416 15.6648C104.109 15.8722 103.938 16.1698 103.902 16.5575H102.86C102.905 15.8902 103.185 15.3672 103.699 14.9884C104.213 14.6097 104.885 14.4203 105.714 14.4203C106.571 14.4203 107.207 14.6232 107.621 15.029C108.036 15.4348 108.244 16.0435 108.244 16.8551V20.1692C108.244 20.3676 108.257 20.575 108.284 20.7915C108.311 20.9989 108.347 21.2198 108.393 21.4543H107.351ZM104.984 21.5896C104.271 21.5896 103.703 21.4182 103.279 21.0755C102.865 20.7238 102.657 20.2459 102.657 19.6417C102.657 19.0375 102.865 18.5685 103.279 18.2349C103.694 17.9012 104.298 17.6667 105.092 17.5315L107.5 17.1257V18.0184L105.254 18.3701C104.749 18.4513 104.366 18.5866 104.104 18.776C103.843 18.9653 103.712 19.2404 103.712 19.6011C103.712 19.9528 103.829 20.2188 104.064 20.3992C104.307 20.5795 104.664 20.6697 105.133 20.6697C105.737 20.6697 106.228 20.5345 106.607 20.2639C106.995 19.9844 107.189 19.6236 107.189 19.1818L107.364 20.1422C107.22 20.6021 106.936 20.9583 106.512 21.2108C106.097 21.4633 105.588 21.5896 104.984 21.5896ZM110.33 21.4543V14.5555H111.344V16.1788H111.412V21.4543H110.33ZM115.267 21.4543V16.9363C115.267 16.4132 115.136 16.021 114.875 15.7594C114.613 15.4979 114.225 15.3672 113.711 15.3672C113.26 15.3672 112.859 15.4664 112.507 15.6648C112.165 15.8632 111.894 16.1382 111.696 16.4899C111.506 16.8416 111.412 17.2519 111.412 17.7209L111.236 16.0841C111.47 15.5701 111.827 15.1643 112.305 14.8667C112.792 14.5691 113.342 14.4203 113.955 14.4203C114.676 14.4203 115.253 14.6277 115.686 15.0425C116.128 15.4483 116.349 15.9849 116.349 16.6522V21.4543H115.267ZM121.16 21.5896C120.528 21.5896 119.965 21.4362 119.469 21.1296C118.982 20.814 118.594 20.3857 118.306 19.8446C118.026 19.2945 117.886 18.6722 117.886 17.9779C117.886 17.2835 118.026 16.6703 118.306 16.1382C118.594 15.6061 118.982 15.1868 119.469 14.8802C119.965 14.5736 120.524 14.4203 121.146 14.4203C121.66 14.4203 122.12 14.5195 122.526 14.7179C122.941 14.9163 123.279 15.2003 123.54 15.5701C123.811 15.9308 123.982 16.3546 124.054 16.8416H123.053C122.963 16.3997 122.756 16.039 122.431 15.7594C122.107 15.4799 121.687 15.3401 121.173 15.3401C120.731 15.3401 120.348 15.4483 120.023 15.6648C119.699 15.8812 119.446 16.1878 119.266 16.5846C119.086 16.9814 118.995 17.4458 118.995 17.9779C118.995 18.5099 119.086 18.9789 119.266 19.3847C119.446 19.7905 119.699 20.1061 120.023 20.3315C120.357 20.557 120.745 20.6697 121.187 20.6697C121.683 20.6697 122.098 20.5345 122.431 20.2639C122.765 19.9844 122.977 19.6236 123.067 19.1818H124.068C123.987 19.6597 123.806 20.0836 123.527 20.4533C123.256 20.814 122.918 21.0936 122.512 21.292C122.107 21.4904 121.656 21.5896 121.16 21.5896ZM128.441 21.5896C127.782 21.5896 127.201 21.4362 126.696 21.1296C126.191 20.814 125.794 20.3857 125.505 19.8446C125.217 19.3035 125.072 18.6813 125.072 17.9779C125.072 17.2745 125.212 16.6567 125.492 16.1247C125.78 15.5836 126.182 15.1643 126.696 14.8667C127.21 14.5691 127.8 14.4203 128.468 14.4203C129.108 14.4203 129.663 14.5601 130.131 14.8396C130.609 15.1192 130.975 15.5115 131.227 16.0165C131.489 16.5215 131.619 17.1166 131.619 17.802C131.619 17.8922 131.615 17.9779 131.606 18.059C131.606 18.1402 131.597 18.2304 131.579 18.3296H125.884V17.4233H130.916L130.564 17.9238C130.564 17.0941 130.379 16.4583 130.01 16.0165C129.649 15.5656 129.135 15.3401 128.468 15.3401C127.782 15.3401 127.228 15.5791 126.804 16.057C126.389 16.526 126.182 17.1617 126.182 17.9643C126.182 18.785 126.389 19.4433 126.804 19.9393C127.228 20.4262 127.791 20.6697 128.495 20.6697C128.937 20.6697 129.324 20.575 129.658 20.3857C129.992 20.1873 130.235 19.9077 130.388 19.547H131.417C131.191 20.1782 130.812 20.6787 130.28 21.0485C129.757 21.4092 129.144 21.5896 128.441 21.5896Z" fill="#1D4ED8"/>
</g>
<path d="M130.661 25.4687C130.719 25.4687 130.767 25.4214 130.767 25.363C130.767 25.3047 130.719 25.2574 130.661 25.2574V25.363V25.4687ZM98.8163 25.363C98.8163 25.6743 99.0686 25.9267 99.3799 25.9267C99.6912 25.9267 99.9435 25.6743 99.9435 25.363C99.9435 25.0518 99.6912 24.7994 99.3799 24.7994C99.0686 24.7994 98.8163 25.0518 98.8163 25.363ZM130.661 25.363V25.2574H99.3799V25.363V25.4687H130.661V25.363Z" fill="#1D4ED8"/>
<path d="M35.9719 10.2509C35.9135 10.2509 35.8662 10.2036 35.8662 10.1453C35.8662 10.0869 35.9135 10.0396 35.9719 10.0396V10.1453V10.2509ZM67.8166 10.1453C67.8166 10.4565 67.5642 10.7089 67.2529 10.7089C66.9416 10.7089 66.6893 10.4565 66.6893 10.1453C66.6893 9.83398 66.9416 9.58164 67.2529 9.58164C67.5642 9.58164 67.8166 9.83398 67.8166 10.1453ZM35.9719 10.1453V10.0396H67.2529V10.1453V10.2509H35.9719V10.1453Z" fill="#D9D9D9"/>
<defs>
<filter id="filter0_d_759_194" x="35.4444" y="10.024" width="99.557" height="17.585" filterUnits="userSpaceOnUse" color-interpolation-filters="sRGB">
<feFlood flood-opacity="0" result="BackgroundImageFix"/>
<feColorMatrix in="SourceAlpha" type="matrix" values="0 0 0 0 0 0 0 0 0 0 0 0 0 0 0 0 0 0 127 0" result="hardAlpha"/>
<feOffset dx="0.845433" dy="0.845433"/>
<feGaussianBlur stdDeviation="1.26815"/>
<feComposite in2="hardAlpha" operator="out"/>
<feColorMatrix type="matrix" values="0 0 0 0 0 0 0 0 0 0 0 0 0 0 0 0 0 0 0.25 0"/>
<feBlend mode="normal" in2="BackgroundImageFix" result="effect1_dropShadow_759_194"/>
<feBlend mode="normal" in="SourceGraphic" in2="effect1_dropShadow_759_194" result="shape"/>
</filter>
</defs>
</svg>
